<?xml version="1.0" encoding="UTF-8" standalone="no" ?>
<!DOCTYPE svg PUBLIC "-//W3C//DTD SVG 1.1//EN" "http://www.w3.org/Graphics/SVG/1.1/DTD/svg11.dtd">
<svg xmlns="http://www.w3.org/2000/svg" xmlns:xlink="http://www.w3.org/1999/xlink" version="1.1" width="1080" height="1080" viewBox="0 0 1080 1080" xml:space="preserve">
<desc>Created with Fabric.js 5.2.4</desc>
<defs>
</defs>
<rect x="0" y="0" width="100%" height="100%" fill="transparent"></rect>
<g transform="matrix(1 0 0 1 540 540)" id="f53155b5-cf6b-41f6-b81b-2419037eaf74"  >
<rect style="stroke: none; stroke-width: 1; stroke-dasharray: none; stroke-linecap: butt; stroke-dashoffset: 0; stroke-linejoin: miter; stroke-miterlimit: 4; fill: rgb(255,255,255); fill-rule: nonzero; opacity: 1; visibility: hidden;" vector-effect="non-scaling-stroke"  x="-540" y="-540" rx="0" ry="0" width="1080" height="1080" />
</g>
<g transform="matrix(1 0 0 1 540 540)" id="911f3632-cb39-4626-b082-7bff3af28ca2"  >
</g>
<g transform="matrix(45 0 0 45 540 540)"  >
<path style="stroke: none; stroke-width: 1; stroke-dasharray: none; stroke-linecap: butt; stroke-dashoffset: 0; stroke-linejoin: miter; stroke-miterlimit: 4; fill: rgb(0,0,0); fill-rule: nonzero; opacity: 1;"  transform=" translate(-12, -11.96)" d="M 12 3.06 L 19 6.27 L 19 11.11 C 19 12.41 18.75 13.709999999999999 18.25 14.969999999999999 C 18.1 15.339999999999998 17.92 15.729999999999999 17.7 16.14 C 17.55 16.41 17.39 16.68 17.22 16.95 C 15.899999999999999 18.96 14.049999999999999 20.369999999999997 11.989999999999998 20.93 C 9.929999999999998 20.37 8.079999999999998 18.96 6.759999999999998 16.95 C 6.589999999999998 16.68 6.429999999999998 16.41 6.279999999999998 16.14 C 6.059999999999998 15.73 5.879999999999997 15.350000000000001 5.729999999999998 14.97 C 5.25 13.71 5 12.41 5 11.11 L 5 6.27 L 12 3.06 M 12 1.96 L 4 5.63 L 4 11.120000000000001 C 4 12.590000000000002 4.3 14.020000000000001 4.8100000000000005 15.34 C 4.98 15.78 5.180000000000001 16.2 5.41 16.62 C 5.57 16.92 5.75 17.220000000000002 5.93 17.5 C 7.35 19.67 9.45 21.32 11.879999999999999 21.94 L 12 21.96 L 12.12 21.93 C 14.549999999999999 21.32 16.65 19.67 18.07 17.5 C 18.26 17.21 18.43 16.92 18.59 16.62 C 18.81 16.21 19.02 15.780000000000001 19.19 15.340000000000002 C 19.7 14.01 20 12.58 20 11.11 L 20 5.63 L 12 1.96 L 12 1.96 z M 13.08 12.11 C 12.76 12.049999999999999 12.44 12 12.120000000000001 11.99 C 13.72 11.92 15 10.62 15 9 C 15 7.34 13.66 6 12 6 C 10.34 6 9 7.34 9 9 C 9 10.620000000000001 10.28 11.92 11.879999999999999 11.99 C 11.559999999999999 12 11.239999999999998 12.05 10.919999999999998 12.11 L 10.919999999999998 12.11 C 8.64 12.58 7 14.62 7 17 L 17 17 C 17 14.62 15.36 12.58 13.08 12.11 z M 10 9 C 10 7.9 10.9 7 12 7 C 13.1 7 14 7.9 14 9 C 14 10.1 13.1 11 12 11 C 10.9 11 10 10.1 10 9 z M 11.12 13.09 C 11.489999999999998 13.01 11.76 12.98 12 12.98 C 12.24 12.98 12.51 13.01 12.88 13.09 C 14.360000000000001 13.39 15.510000000000002 14.55 15.88 16 L 8.12 16 C 8.49 14.55 9.64 13.39 11.12 13.09 z" stroke-linecap="round" />
</g>
</svg>