<?xml version="1.0" encoding="UTF-8" standalone="no" ?>
<!DOCTYPE svg PUBLIC "-//W3C//DTD SVG 1.1//EN" "http://www.w3.org/Graphics/SVG/1.1/DTD/svg11.dtd">
<svg xmlns="http://www.w3.org/2000/svg" xmlns:xlink="http://www.w3.org/1999/xlink" version="1.1" width="1080" height="1080" viewBox="0 0 1080 1080" xml:space="preserve">
<desc>Created with Fabric.js 5.2.4</desc>
<defs>
</defs>
<rect x="0" y="0" width="100%" height="100%" fill="transparent"></rect>
<g transform="matrix(1 0 0 1 540 540)" id="f53155b5-cf6b-41f6-b81b-2419037eaf74"  >
<rect style="stroke: none; stroke-width: 1; stroke-dasharray: none; stroke-linecap: butt; stroke-dashoffset: 0; stroke-linejoin: miter; stroke-miterlimit: 4; fill: rgb(255,255,255); fill-rule: nonzero; opacity: 1; visibility: hidden;" vector-effect="non-scaling-stroke"  x="-540" y="-540" rx="0" ry="0" width="1080" height="1080" />
</g>
<g transform="matrix(1 0 0 1 540 540)" id="911f3632-cb39-4626-b082-7bff3af28ca2"  >
</g>
<g transform="matrix(45 0 0 45 540 540)"  >
<path style="stroke: none; stroke-width: 1; stroke-dasharray: none; stroke-linecap: butt; stroke-dashoffset: 0; stroke-linejoin: miter; stroke-miterlimit: 4; fill: rgb(0,0,0); fill-rule: nonzero; opacity: 1;"  transform=" translate(-12, -12)" d="M 15.36 9.96 C 15.36 11.05 14.69 11.63 14.049999999999999 12.200000000000001 C 13.52 12.670000000000002 13.02 13.100000000000001 12.889999999999999 13.8 L 12.85 14 L 11.1 14 L 11.129999999999999 13.72 C 11.27 12.55 11.93 11.96 12.6 11.450000000000001 C 13.12 11.05 13.61 10.680000000000001 13.61 9.96 C 13.61 9.450000000000001 13.379999999999999 8.99 12.979999999999999 8.670000000000002 C 12.579999999999998 8.360000000000001 12.059999999999999 8.250000000000002 11.559999999999999 8.380000000000003 C 10.969999999999999 8.530000000000003 10.509999999999998 9.050000000000002 10.37 9.720000000000002 L 10.32 10 L 8.57 10 L 8.63 9.58 C 8.83 8.18 9.780000000000001 7.050000000000001 11.05 6.71 C 12.100000000000001 6.42 13.190000000000001 6.63 14.030000000000001 7.28 C 14.88 7.92 15.36 8.9 15.36 9.96 z M 12 18 C 12.55 18 13 17.55 13 17 C 13 16.45 12.55 16 12 16 C 11.45 16 11 16.45 11 17 C 11 17.55 11.45 18 12 18 z M 12 3 C 7.04 3 3 7.04 3 12 C 3 16.96 7.04 21 12 21 C 16.96 21 21 16.96 21 12 C 21 7.039999999999999 16.96 3 12 3 M 12 2 C 17.52 2 22 6.48 22 12 C 22 17.52 17.52 22 12 22 C 6.48 22 2 17.52 2 12 C 2 6.48 6.48 2 12 2 L 12 2 z" stroke-linecap="round" />
</g>
</svg>