<?xml version="1.0" encoding="UTF-8" standalone="no" ?>
<!DOCTYPE svg PUBLIC "-//W3C//DTD SVG 1.1//EN" "http://www.w3.org/Graphics/SVG/1.1/DTD/svg11.dtd">
<svg xmlns="http://www.w3.org/2000/svg" xmlns:xlink="http://www.w3.org/1999/xlink" version="1.1" width="1080" height="1080" viewBox="0 0 1080 1080" xml:space="preserve">
<desc>Created with Fabric.js 5.2.4</desc>
<defs>
</defs>
<rect x="0" y="0" width="100%" height="100%" fill="transparent"></rect>
<g transform="matrix(1 0 0 1 540 540)" id="f53155b5-cf6b-41f6-b81b-2419037eaf74"  >
<rect style="stroke: none; stroke-width: 1; stroke-dasharray: none; stroke-linecap: butt; stroke-dashoffset: 0; stroke-linejoin: miter; stroke-miterlimit: 4; fill: rgb(255,255,255); fill-rule: nonzero; opacity: 1; visibility: hidden;" vector-effect="non-scaling-stroke"  x="-540" y="-540" rx="0" ry="0" width="1080" height="1080" />
</g>
<g transform="matrix(1 0 0 1 540 540)" id="911f3632-cb39-4626-b082-7bff3af28ca2"  >
</g>
<g transform="matrix(45 0 0 45 540 540)"  >
<path style="stroke: none; stroke-width: 1; stroke-dasharray: none; stroke-linecap: butt; stroke-dashoffset: 0; stroke-linejoin: miter; stroke-miterlimit: 4; fill: rgb(0,0,0); fill-rule: nonzero; opacity: 1;"  transform=" translate(-12, -12)" d="M 16 16 L 8 16 L 8 14 L 16 14 L 16 16 z M 16 11 L 14 11 L 14 13 L 16 13 L 16 11 z M 19 11 L 17 11 L 17 13 L 19 13 L 19 11 z M 13 11 L 11 11 L 11 13 L 13 13 L 13 11 z M 10 11 L 8 11 L 8 13 L 10 13 L 10 11 z M 7 11 L 5 11 L 5 13 L 7 13 L 7 11 z M 16 8 L 14 8 L 14 10 L 16 10 L 16 8 z M 19 8 L 17 8 L 17 10 L 19 10 L 19 8 z M 13 8 L 11 8 L 11 10 L 13 10 L 13 8 z M 10 8 L 8 8 L 8 10 L 10 10 L 10 8 z M 7 8 L 5 8 L 5 10 L 7 10 L 7 8 z M 22 5 L 22 19 L 2 19 L 2 5 L 22 5 z M 21 6 L 3 6 L 3 18 L 21 18 L 21 6 z" stroke-linecap="round" />
</g>
</svg>