<?xml version="1.0" encoding="UTF-8" standalone="no" ?>
<!DOCTYPE svg PUBLIC "-//W3C//DTD SVG 1.1//EN" "http://www.w3.org/Graphics/SVG/1.1/DTD/svg11.dtd">
<svg xmlns="http://www.w3.org/2000/svg" xmlns:xlink="http://www.w3.org/1999/xlink" version="1.1" width="1080" height="1080" viewBox="0 0 1080 1080" xml:space="preserve">
<desc>Created with Fabric.js 5.2.4</desc>
<defs>
</defs>
<rect x="0" y="0" width="100%" height="100%" fill="transparent"></rect>
<g transform="matrix(1 0 0 1 540 540)" id="f53155b5-cf6b-41f6-b81b-2419037eaf74"  >
<rect style="stroke: none; stroke-width: 1; stroke-dasharray: none; stroke-linecap: butt; stroke-dashoffset: 0; stroke-linejoin: miter; stroke-miterlimit: 4; fill: rgb(255,255,255); fill-rule: nonzero; opacity: 1; visibility: hidden;" vector-effect="non-scaling-stroke"  x="-540" y="-540" rx="0" ry="0" width="1080" height="1080" />
</g>
<g transform="matrix(1 0 0 1 540 540)" id="911f3632-cb39-4626-b082-7bff3af28ca2"  >
</g>
<g transform="matrix(45 0 0 45 540 540)"  >
<path style="stroke: none; stroke-width: 1; stroke-dasharray: none; stroke-linecap: butt; stroke-dashoffset: 0; stroke-linejoin: miter; stroke-miterlimit: 4; fill: rgb(0,0,0); fill-rule: nonzero; opacity: 1;"  transform=" translate(-12, -12)" d="M 11.99 1.98 C 6.46 1.98 1.98 6.47 1.98 12 C 1.98 17.53 6.460000000000001 22.02 11.99 22.02 C 17.53 22.02 22.02 17.53 22.02 12 C 22.02 6.469999999999999 17.53 1.98 11.99 1.98 z M 8.86 14.5 C 8.7 13.68 8.61 12.85 8.61 12 C 8.61 11.13 8.7 10.28 8.87 9.45 L 15.139999999999999 9.45 C 15.309999999999999 10.28 15.399999999999999 11.129999999999999 15.399999999999999 12 C 15.399999999999999 12.85 15.309999999999999 13.68 15.149999999999999 14.5 L 8.86 14.5 z M 14.89 15.5 C 14.350000000000001 17.39 13.370000000000001 19.14 12 20.65 C 10.629999999999999 19.15 9.65 17.4 9.11 15.499999999999998 L 14.89 15.499999999999998 z M 9.12 8.45 C 9.66 6.579999999999999 10.639999999999999 4.84 12 3.3499999999999996 C 13.36 4.84 14.34 6.57 14.879999999999999 8.45 L 9.12 8.45 z M 16.15 9.45 L 20.65 9.45 C 20.889999999999997 10.26 21.02 11.11 21.02 12 C 21.02 12.87 20.89 13.71 20.66 14.5 L 16.15 14.5 C 16.299999999999997 13.68 16.389999999999997 12.85 16.389999999999997 12 C 16.39 11.13 16.3 10.28 16.15 9.45 z M 20.29 8.45 L 15.91 8.45 C 15.38 6.4799999999999995 14.44 4.639999999999999 13.08 3.049999999999999 C 16.33 3.45 19.04 5.56 20.29 8.45 z M 10.92 3.05 C 9.57 4.64 8.620000000000001 6.48 8.09 8.45 L 3.71 8.45 C 4.95 5.55 7.67 3.44 10.92 3.05 z M 3.35 9.45 L 7.85 9.45 C 7.7 10.28 7.61 11.13 7.61 12 C 7.61 12.85 7.7 13.68 7.8500000000000005 14.5 L 3.34 14.5 C 3.11 13.71 2.98 12.870000000000001 2.98 12 C 2.98 11.11 3.11 10.26 3.35 9.45 z M 3.69 15.5 L 8.08 15.5 C 8.6 17.49 9.56 19.35 10.92 20.95 C 7.65 20.56 4.92 18.42 3.69 15.5 z M 13.09 20.95 C 14.45 19.349999999999998 15.41 17.49 15.93 15.5 L 20.32 15.5 C 19.08 18.42 16.35 20.55 13.09 20.95 z" stroke-linecap="round" />
</g>
</svg>