<?xml version="1.0" encoding="UTF-8" standalone="no" ?>
<!DOCTYPE svg PUBLIC "-//W3C//DTD SVG 1.1//EN" "http://www.w3.org/Graphics/SVG/1.1/DTD/svg11.dtd">
<svg xmlns="http://www.w3.org/2000/svg" xmlns:xlink="http://www.w3.org/1999/xlink" version="1.1" width="1080" height="1080" viewBox="0 0 1080 1080" xml:space="preserve">
<desc>Created with Fabric.js 5.2.4</desc>
<defs>
</defs>
<rect x="0" y="0" width="100%" height="100%" fill="transparent"></rect>
<g transform="matrix(1 0 0 1 540 540)" id="f53155b5-cf6b-41f6-b81b-2419037eaf74"  >
<rect style="stroke: none; stroke-width: 1; stroke-dasharray: none; stroke-linecap: butt; stroke-dashoffset: 0; stroke-linejoin: miter; stroke-miterlimit: 4; fill: rgb(255,255,255); fill-rule: nonzero; opacity: 1; visibility: hidden;" vector-effect="non-scaling-stroke"  x="-540" y="-540" rx="0" ry="0" width="1080" height="1080" />
</g>
<g transform="matrix(1 0 0 1 540 540)" id="911f3632-cb39-4626-b082-7bff3af28ca2"  >
</g>
<g transform="matrix(45 0 0 45 540 540)"  >
<path style="stroke: none; stroke-width: 1; stroke-dasharray: none; stroke-linecap: butt; stroke-dashoffset: 0; stroke-linejoin: miter; stroke-miterlimit: 4; fill: rgb(0,0,0); fill-rule: nonzero; opacity: 1;"  transform=" translate(-12, -12)" d="M 10 9.35 L 15 12 L 10 14.65 Z M 12 3 C 11.893526884187198 2.9971450727429483 11.787718755453579 3.0176240654010678 11.69 3.06 L 4.3 7.28 C 4.135470741781607 7.40710439535434 4.027678948856703 7.5939435030908395 4 7.8 L 4 16.2 C 4.027678948856703 16.40605649690916 4.135470741781607 16.59289560464566 4.3 16.72 L 11.69 20.939999999999998 C 11.888907963971393 21.02008658373759 12.111092036028603 21.02008658373759 12.309999999999999 20.939999999999998 L 19.7 16.72 C 19.864529258218393 16.59289560464566 19.972321051143297 16.40605649690916 20 16.2 L 20 7.8 C 19.972321051143297 7.593943503090839 19.864529258218393 7.407104395354339 19.7 7.279999999999999 L 12.31 3.06 C 12.212281244546421 3.0176240654010678 12.106473115812802 2.997145072742948 12 3 M 12 2 C 12.278665003438942 1.9925608558293681 12.554438255067437 2.058057003091136 12.799999999999999 2.1899999999999995 L 20.200000000000003 6.41 C 20.673321168726204 6.719009941666367 20.97058441423161 7.2355048307320144 21 7.799999999999999 L 21 16.2 C 20.97058441423161 16.764495169267985 20.6733211687262 17.280990058333632 20.2 17.59 L 12.799999999999999 21.81 C 12.296720134088572 22.06320755090123 11.703279865911426 22.06320755090123 11.2 21.81 L 3.8 17.59 C 3.3266788312737985 17.280990058333632 3.0294155857683887 16.764495169267985 3 16.2 L 3 7.8 C 3.029415585768389 7.235504830732015 3.326678831273799 6.719009941666366 3.8000000000000003 6.41 L 11.2 2.1900000000000004 C 11.445561744932562 2.0580570030911365 11.721334996561056 1.9925608558293693 11.999999999999998 2.0000000000000004 Z M 12 6 C 11.943925768284517 5.988411848482102 11.886074231715483 5.988411848482102 11.83 6 L 7.13 8.8 C 7.041313137151103 8.910211188461426 6.995177222797738 9.04861893152152 7 9.19 L 7 14.8 C 7.0042062964059655 14.933776097491547 7.049606599415013 15.062992344517298 7.13 15.17 L 11.83 17.97 C 11.883978130324884 17.991663206589454 11.941867370593652 18.00187895487218 12 18 C 12.055752450280696 18.01439522076316 12.114247549719304 18.01439522076316 12.17 18 L 16.87 15.19 C 16.961208346399303 15.081181654267708 17.007675669680065 14.941779684425414 17 14.8 L 17 9.19 C 16.9978420987508 9.055849430026193 16.952225856187102 8.926018585806435 16.87 8.82 L 12.17 6 C 12.114247549719304 5.985604779236841 12.055752450280696 5.985604779236841 12 6 M 12 5 C 12.240590269855646 4.9981336827376435 12.477813602673868 5.056580011113147 12.689999999999998 5.169999999999999 L 17.39 8 C 17.773715742051852 8.274761160967904 18.000951225371285 8.718056612033681 18 9.19 L 18 14.8 C 18.00420250142597 15.275466367949292 17.776607038215637 15.723195148035192 17.39 16 L 12.690000000000001 18.81 C 12.479653968602486 18.930390008751644 12.242324314934768 18.995741652515218 12 19 C 11.76258528886849 19.001909778775143 11.528584849221854 18.943409668863485 11.32 18.83 L 6.62 16 C 6.23091967648053 15.724248273177377 5.999783698752966 15.276888316285318 6 14.8 L 6 9.19 C 6.0030122217908755 8.716645050273817 6.233787917470531 8.27370460211448 6.619999999999999 8 L 11.32 5.2 C 11.52575852143333 5.076107895890048 11.759930231346843 5.0072338635625435 12 5 Z" stroke-linecap="round" />
</g>
</svg>